<svg width="188" height="28" viewBox="0 0 188 28" fill="none" xmlns="http://www.w3.org/2000/svg">
<path d="M46.8419 24.1657C45.9681 24.1657 45.4558 23.646 45.4558 22.7269V14.4031C45.4558 13.4841 45.9681 12.9643 46.8419 12.9643C47.7157 12.9643 48.2204 13.4841 48.2204 14.4031V17.3937H52.5518V14.4031C52.5518 13.4841 53.0565 12.9643 53.9303 12.9643C54.8041 12.9643 55.3088 13.4841 55.3088 14.4031V22.7269C55.3088 23.646 54.8041 24.1657 53.9303 24.1657C53.0565 24.1657 52.5518 23.646 52.5518 22.7269V19.6234H48.2204V22.7269C48.2204 23.646 47.7157 24.1657 46.8419 24.1657ZM62.9613 24.1883C59.6619 24.1883 57.5904 22.0339 57.5904 18.5688C57.5904 15.1037 59.6695 12.9417 62.9613 12.9417C66.2532 12.9417 68.3247 15.1037 68.3247 18.5688C68.3247 22.0339 66.2532 24.1883 62.9613 24.1883ZM62.9613 21.9435C64.5056 21.9435 65.515 20.6328 65.515 18.5688C65.515 16.4973 64.5056 15.1865 62.9613 15.1865C61.4171 15.1865 60.4077 16.4973 60.4077 18.5688C60.4077 20.6328 61.4096 21.9435 62.9613 21.9435ZM71.9848 24C71.111 24 70.5988 23.4727 70.5988 22.5537V14.5764C70.5988 13.6574 71.111 13.1301 71.9848 13.1301H75.6533C77.7927 13.1301 79.0808 14.1621 79.0808 15.8419C79.0808 17.0622 78.1618 18.034 76.9565 18.1997V18.26C78.4254 18.3277 79.5855 19.42 79.5855 20.8663C79.5855 22.7721 78.1166 24 75.7889 24H71.9848ZM73.3633 17.5594H74.787C75.7889 17.5594 76.3916 17.0848 76.3916 16.3014C76.3916 15.5406 75.8492 15.0886 74.9226 15.0886H73.3633V17.5594ZM73.3633 22.0415H75.0055C76.143 22.0415 76.7757 21.5443 76.7757 20.6253C76.7757 19.7364 76.1279 19.2392 74.9904 19.2392H73.3633V22.0415ZM83.0648 24C82.191 24 81.6787 23.4727 81.6787 22.5537V14.5764C81.6787 13.6574 82.191 13.1301 83.0648 13.1301H86.7333C88.8726 13.1301 90.1607 14.1621 90.1607 15.8419C90.1607 17.0622 89.2417 18.034 88.0365 18.1997V18.26C89.5054 18.3277 90.6654 19.42 90.6654 20.8663C90.6654 22.7721 89.1965 24 86.8689 24H83.0648ZM84.4433 17.5594H85.867C86.8689 17.5594 87.4715 17.0848 87.4715 16.3014C87.4715 15.5406 86.9291 15.0886 86.0026 15.0886H84.4433V17.5594ZM84.4433 22.0415H86.0855C87.2229 22.0415 87.8557 21.5443 87.8557 20.6253C87.8557 19.7364 87.2079 19.2392 86.0704 19.2392H84.4433V22.0415ZM96.9394 24.1657C96.0581 24.1657 95.5534 23.646 95.5534 22.7269V20.2637L92.3444 15.2167C92.1485 14.9078 92.0581 14.5914 92.0581 14.2751C92.0581 13.5142 92.6457 12.9643 93.4517 12.9643C94.0543 12.9643 94.3782 13.1828 94.7474 13.8457L96.9394 17.6498H96.9922L99.1842 13.8457C99.5383 13.2129 99.8998 12.9643 100.45 12.9643C101.233 12.9643 101.813 13.5142 101.813 14.2525C101.813 14.5839 101.723 14.8928 101.519 15.2091L98.3179 20.2637V22.7269C98.3179 23.646 97.8132 24.1657 96.9394 24.1657ZM109.344 24C108.47 24 107.958 23.4727 107.958 22.5537V14.5764C107.958 13.6574 108.47 13.1301 109.344 13.1301H114.323C115.069 13.1301 115.551 13.5368 115.551 14.2449C115.551 14.953 115.054 15.3598 114.323 15.3598H110.723V17.5217H114.158C114.828 17.5217 115.273 17.8984 115.273 18.5387C115.273 19.179 114.843 19.5556 114.158 19.5556H110.723V21.7703H114.323C115.054 21.7703 115.551 22.177 115.551 22.8851C115.551 23.5932 115.069 24 114.323 24H109.344ZM119.159 24.1657C118.428 24.1657 117.863 23.6384 117.863 22.968C117.863 22.6215 117.968 22.3202 118.255 21.936L120.71 18.5537V18.4935L118.353 15.3598C118.029 14.938 117.931 14.6291 117.931 14.26C117.931 13.5067 118.511 12.9643 119.317 12.9643C119.837 12.9643 120.221 13.1979 120.552 13.7101L122.616 16.8061H122.669L124.808 13.6197C125.117 13.1602 125.388 12.9643 125.923 12.9643C126.639 12.9643 127.264 13.4766 127.264 14.1395C127.264 14.501 127.159 14.8024 126.887 15.1489L124.289 18.5236V18.5763L126.812 21.8908C127.091 22.2373 127.196 22.5537 127.196 22.9303C127.196 23.6535 126.654 24.1657 125.893 24.1657C125.388 24.1657 125.057 23.9699 124.695 23.4802L122.503 20.4746H122.443L120.319 23.5028C119.98 23.9849 119.678 24.1657 119.159 24.1657ZM131.188 24.1657C130.314 24.1657 129.802 23.646 129.802 22.7269V14.5764C129.802 13.6574 130.314 13.1301 131.188 13.1301H134.51C136.845 13.1301 138.427 14.6442 138.427 16.9794C138.427 19.2995 136.762 20.8136 134.344 20.8136H132.566V22.7269C132.566 23.646 132.062 24.1657 131.188 24.1657ZM132.566 18.7345H133.764C134.939 18.7345 135.632 18.1244 135.632 16.9869C135.632 15.857 134.939 15.2468 133.779 15.2468H132.566V18.7345ZM141.966 24C141.093 24 140.58 23.4727 140.58 22.5537V14.4031C140.58 13.4841 141.093 12.9643 141.966 12.9643C142.84 12.9643 143.345 13.4841 143.345 14.4031V21.7703H146.75C147.488 21.7703 147.978 22.177 147.978 22.8851C147.978 23.5932 147.496 24 146.75 24H141.966ZM154.651 24.1883C151.351 24.1883 149.28 22.0339 149.28 18.5688C149.28 15.1037 151.359 12.9417 154.651 12.9417C157.943 12.9417 160.014 15.1037 160.014 18.5688C160.014 22.0339 157.943 24.1883 154.651 24.1883ZM154.651 21.9435C156.195 21.9435 157.205 20.6328 157.205 18.5688C157.205 16.4973 156.195 15.1865 154.651 15.1865C153.107 15.1865 152.097 16.4973 152.097 18.5688C152.097 20.6328 153.099 21.9435 154.651 21.9435ZM163.674 24.1733C162.801 24.1733 162.288 23.646 162.288 22.7345V14.5764C162.288 13.6574 162.801 13.1301 163.674 13.1301H166.944C169.655 13.1301 171.117 14.4709 171.117 16.7157C171.117 17.9963 170.529 19.1413 169.422 19.6987L170.755 21.9661C170.996 22.3654 171.049 22.5914 171.049 22.9153C171.049 23.646 170.477 24.1733 169.671 24.1733C169 24.1733 168.714 23.9397 168.247 23.0961L166.635 20.1959H165.053V22.7345C165.053 23.646 164.548 24.1733 163.674 24.1733ZM165.053 18.3051H166.672C167.689 18.3051 168.292 17.7101 168.292 16.7684C168.292 15.8419 167.652 15.2167 166.665 15.2167H165.053V18.3051ZM174.815 24C173.941 24 173.429 23.4727 173.429 22.5537V14.5764C173.429 13.6574 173.941 13.1301 174.815 13.1301H179.794C180.54 13.1301 181.022 13.5368 181.022 14.2449C181.022 14.953 180.524 15.3598 179.794 15.3598H176.193V17.5217H179.628C180.299 17.5217 180.743 17.8984 180.743 18.5387C180.743 19.179 180.314 19.5556 179.628 19.5556H176.193V21.7703H179.794C180.524 21.7703 181.022 22.177 181.022 22.8851C181.022 23.5932 180.54 24 179.794 24H174.815Z" fill="white"/>
<path d="M46.8419 24.1657C45.9681 24.1657 45.4558 23.646 45.4558 22.7269V14.4031C45.4558 13.4841 45.9681 12.9643 46.8419 12.9643C47.7157 12.9643 48.2204 13.4841 48.2204 14.4031V17.3937H52.5518V14.4031C52.5518 13.4841 53.0565 12.9643 53.9303 12.9643C54.8041 12.9643 55.3088 13.4841 55.3088 14.4031V22.7269C55.3088 23.646 54.8041 24.1657 53.9303 24.1657C53.0565 24.1657 52.5518 23.646 52.5518 22.7269V19.6234H48.2204V22.7269C48.2204 23.646 47.7157 24.1657 46.8419 24.1657ZM62.9613 24.1883C59.6619 24.1883 57.5904 22.0339 57.5904 18.5688C57.5904 15.1037 59.6695 12.9417 62.9613 12.9417C66.2532 12.9417 68.3247 15.1037 68.3247 18.5688C68.3247 22.0339 66.2532 24.1883 62.9613 24.1883ZM62.9613 21.9435C64.5056 21.9435 65.515 20.6328 65.515 18.5688C65.515 16.4973 64.5056 15.1865 62.9613 15.1865C61.4171 15.1865 60.4077 16.4973 60.4077 18.5688C60.4077 20.6328 61.4096 21.9435 62.9613 21.9435ZM71.9848 24C71.111 24 70.5988 23.4727 70.5988 22.5537V14.5764C70.5988 13.6574 71.111 13.1301 71.9848 13.1301H75.6533C77.7927 13.1301 79.0808 14.1621 79.0808 15.8419C79.0808 17.0622 78.1618 18.034 76.9565 18.1997V18.26C78.4254 18.3277 79.5855 19.42 79.5855 20.8663C79.5855 22.7721 78.1166 24 75.7889 24H71.9848ZM73.3633 17.5594H74.787C75.7889 17.5594 76.3916 17.0848 76.3916 16.3014C76.3916 15.5406 75.8492 15.0886 74.9226 15.0886H73.3633V17.5594ZM73.3633 22.0415H75.0055C76.143 22.0415 76.7757 21.5443 76.7757 20.6253C76.7757 19.7364 76.1279 19.2392 74.9904 19.2392H73.3633V22.0415ZM83.0648 24C82.191 24 81.6787 23.4727 81.6787 22.5537V14.5764C81.6787 13.6574 82.191 13.1301 83.0648 13.1301H86.7333C88.8726 13.1301 90.1607 14.1621 90.1607 15.8419C90.1607 17.0622 89.2417 18.034 88.0365 18.1997V18.26C89.5054 18.3277 90.6654 19.42 90.6654 20.8663C90.6654 22.7721 89.1965 24 86.8689 24H83.0648ZM84.4433 17.5594H85.867C86.8689 17.5594 87.4715 17.0848 87.4715 16.3014C87.4715 15.5406 86.9291 15.0886 86.0026 15.0886H84.4433V17.5594ZM84.4433 22.0415H86.0855C87.2229 22.0415 87.8557 21.5443 87.8557 20.6253C87.8557 19.7364 87.2079 19.2392 86.0704 19.2392H84.4433V22.0415ZM96.9394 24.1657C96.0581 24.1657 95.5534 23.646 95.5534 22.7269V20.2637L92.3444 15.2167C92.1485 14.9078 92.0581 14.5914 92.0581 14.2751C92.0581 13.5142 92.6457 12.9643 93.4517 12.9643C94.0543 12.9643 94.3782 13.1828 94.7474 13.8457L96.9394 17.6498H96.9922L99.1842 13.8457C99.5383 13.2129 99.8998 12.9643 100.45 12.9643C101.233 12.9643 101.813 13.5142 101.813 14.2525C101.813 14.5839 101.723 14.8928 101.519 15.2091L98.3179 20.2637V22.7269C98.3179 23.646 97.8132 24.1657 96.9394 24.1657ZM109.344 24C108.47 24 107.958 23.4727 107.958 22.5537V14.5764C107.958 13.6574 108.47 13.1301 109.344 13.1301H114.323C115.069 13.1301 115.551 13.5368 115.551 14.2449C115.551 14.953 115.054 15.3598 114.323 15.3598H110.723V17.5217H114.158C114.828 17.5217 115.273 17.8984 115.273 18.5387C115.273 19.179 114.843 19.5556 114.158 19.5556H110.723V21.7703H114.323C115.054 21.7703 115.551 22.177 115.551 22.8851C115.551 23.5932 115.069 24 114.323 24H109.344ZM119.159 24.1657C118.428 24.1657 117.863 23.6384 117.863 22.968C117.863 22.6215 117.968 22.3202 118.255 21.936L120.71 18.5537V18.4935L118.353 15.3598C118.029 14.938 117.931 14.6291 117.931 14.26C117.931 13.5067 118.511 12.9643 119.317 12.9643C119.837 12.9643 120.221 13.1979 120.552 13.7101L122.616 16.8061H122.669L124.808 13.6197C125.117 13.1602 125.388 12.9643 125.923 12.9643C126.639 12.9643 127.264 13.4766 127.264 14.1395C127.264 14.501 127.159 14.8024 126.887 15.1489L124.289 18.5236V18.5763L126.812 21.8908C127.091 22.2373 127.196 22.5537 127.196 22.9303C127.196 23.6535 126.654 24.1657 125.893 24.1657C125.388 24.1657 125.057 23.9699 124.695 23.4802L122.503 20.4746H122.443L120.319 23.5028C119.98 23.9849 119.678 24.1657 119.159 24.1657ZM131.188 24.1657C130.314 24.1657 129.802 23.646 129.802 22.7269V14.5764C129.802 13.6574 130.314 13.1301 131.188 13.1301H134.51C136.845 13.1301 138.427 14.6442 138.427 16.9794C138.427 19.2995 136.762 20.8136 134.344 20.8136H132.566V22.7269C132.566 23.646 132.062 24.1657 131.188 24.1657ZM132.566 18.7345H133.764C134.939 18.7345 135.632 18.1244 135.632 16.9869C135.632 15.857 134.939 15.2468 133.779 15.2468H132.566V18.7345ZM141.966 24C141.093 24 140.58 23.4727 140.58 22.5537V14.4031C140.58 13.4841 141.093 12.9643 141.966 12.9643C142.84 12.9643 143.345 13.4841 143.345 14.4031V21.7703H146.75C147.488 21.7703 147.978 22.177 147.978 22.8851C147.978 23.5932 147.496 24 146.75 24H141.966ZM154.651 24.1883C151.351 24.1883 149.28 22.0339 149.28 18.5688C149.28 15.1037 151.359 12.9417 154.651 12.9417C157.943 12.9417 160.014 15.1037 160.014 18.5688C160.014 22.0339 157.943 24.1883 154.651 24.1883ZM154.651 21.9435C156.195 21.9435 157.205 20.6328 157.205 18.5688C157.205 16.4973 156.195 15.1865 154.651 15.1865C153.107 15.1865 152.097 16.4973 152.097 18.5688C152.097 20.6328 153.099 21.9435 154.651 21.9435ZM163.674 24.1733C162.801 24.1733 162.288 23.646 162.288 22.7345V14.5764C162.288 13.6574 162.801 13.1301 163.674 13.1301H166.944C169.655 13.1301 171.117 14.4709 171.117 16.7157C171.117 17.9963 170.529 19.1413 169.422 19.6987L170.755 21.9661C170.996 22.3654 171.049 22.5914 171.049 22.9153C171.049 23.646 170.477 24.1733 169.671 24.1733C169 24.1733 168.714 23.9397 168.247 23.0961L166.635 20.1959H165.053V22.7345C165.053 23.646 164.548 24.1733 163.674 24.1733ZM165.053 18.3051H166.672C167.689 18.3051 168.292 17.7101 168.292 16.7684C168.292 15.8419 167.652 15.2167 166.665 15.2167H165.053V18.3051ZM174.815 24C173.941 24 173.429 23.4727 173.429 22.5537V14.5764C173.429 13.6574 173.941 13.1301 174.815 13.1301H179.794C180.54 13.1301 181.022 13.5368 181.022 14.2449C181.022 14.953 180.524 15.3598 179.794 15.3598H176.193V17.5217H179.628C180.299 17.5217 180.743 17.8984 180.743 18.5387C180.743 19.179 180.314 19.5556 179.628 19.5556H176.193V21.7703H179.794C180.524 21.7703 181.022 22.177 181.022 22.8851C181.022 23.5932 180.54 24 179.794 24H174.815Z" fill="white"/>
<path d="M15.3363 18.4743C15.3363 22.538 12.1628 25.7538 8.34311 25.7538C4.52342 25.7538 1.34989 22.538 1.34989 18.4743C1.34989 14.4107 4.52342 11.1949 8.34311 11.1949C12.1628 11.1949 15.3363 14.4107 15.3363 18.4743Z" stroke="white" stroke-width="2.69978"/>
<path d="M15.3363 18.4743C15.3363 22.538 12.1628 25.7538 8.34311 25.7538C4.52342 25.7538 1.34989 22.538 1.34989 18.4743C1.34989 14.4107 4.52342 11.1949 8.34311 11.1949C12.1628 11.1949 15.3363 14.4107 15.3363 18.4743Z" stroke="white" stroke-width="2.69978"/>
<path d="M35.3324 18.4743C35.3324 22.538 32.1589 25.7538 28.3392 25.7538C24.5195 25.7538 21.346 22.538 21.346 18.4743C21.346 14.4107 24.5195 11.1949 28.3392 11.1949C32.1589 11.1949 35.3324 14.4107 35.3324 18.4743Z" stroke="white" stroke-width="2.69978"/>
<path d="M35.3324 18.4743C35.3324 22.538 32.1589 25.7538 28.3392 25.7538C24.5195 25.7538 21.346 22.538 21.346 18.4743C21.346 14.4107 24.5195 11.1949 28.3392 11.1949C32.1589 11.1949 35.3324 14.4107 35.3324 18.4743Z" stroke="white" stroke-width="2.69978"/>
<path d="M8.34277 18.4742L11.7854 3.78602C12.0307 2.73977 12.9639 2 14.0385 2H18.9613" stroke="white" stroke-width="2.3141" stroke-linecap="round"/>
<path d="M8.34277 18.4742L11.7854 3.78602C12.0307 2.73977 12.9639 2 14.0385 2H18.9613" stroke="white" stroke-width="2.3141" stroke-linecap="round"/>
<path d="M26.3416 18.4744L9.10156 18.4744" stroke="white" stroke-width="2.3141" stroke-linecap="round"/>
<path d="M26.3416 18.4744L9.10156 18.4744" stroke="white" stroke-width="2.3141" stroke-linecap="round"/>
<ellipse cx="8.34343" cy="18.4744" rx="3.03386" ry="3.13795" fill="white"/>
<ellipse cx="8.34343" cy="18.4744" rx="3.03386" ry="3.13795" fill="white"/>
<ellipse cx="28.3385" cy="18.4744" rx="3.03386" ry="3.13795" fill="white"/>
<ellipse cx="28.3385" cy="18.4744" rx="3.03386" ry="3.13795" fill="white"/>
</svg>
