<svg width="186" height="50" viewBox="0 0 186 50" fill="none" xmlns="http://www.w3.org/2000/svg">
<path d="M51.4335 30.1657C50.5596 30.1657 50.0474 29.646 50.0474 28.7269V20.4031C50.0474 19.4841 50.5596 18.9643 51.4335 18.9643C52.3073 18.9643 52.812 19.4841 52.812 20.4031V23.3937H57.1434V20.4031C57.1434 19.4841 57.6481 18.9643 58.5219 18.9643C59.3957 18.9643 59.9004 19.4841 59.9004 20.4031V28.7269C59.9004 29.646 59.3957 30.1657 58.5219 30.1657C57.6481 30.1657 57.1434 29.646 57.1434 28.7269V25.6234H52.812V28.7269C52.812 29.646 52.3073 30.1657 51.4335 30.1657ZM67.5529 30.1883C64.2535 30.1883 62.182 28.0339 62.182 24.5688C62.182 21.1037 64.261 18.9417 67.5529 18.9417C70.8448 18.9417 72.9163 21.1037 72.9163 24.5688C72.9163 28.0339 70.8448 30.1883 67.5529 30.1883ZM67.5529 27.9435C69.0971 27.9435 70.1065 26.6328 70.1065 24.5688C70.1065 22.4973 69.0971 21.1865 67.5529 21.1865C66.0087 21.1865 64.9993 22.4973 64.9993 24.5688C64.9993 26.6328 66.0011 27.9435 67.5529 27.9435ZM76.5764 30C75.7026 30 75.1903 29.4727 75.1903 28.5537V20.5764C75.1903 19.6574 75.7026 19.1301 76.5764 19.1301H80.2449C82.3842 19.1301 83.6723 20.1621 83.6723 21.8419C83.6723 23.0622 82.7533 24.034 81.5481 24.1997V24.26C83.017 24.3277 84.177 25.42 84.177 26.8663C84.177 28.7721 82.7081 30 80.3805 30H76.5764ZM77.9549 23.5594H79.3786C80.3805 23.5594 80.9831 23.0848 80.9831 22.3014C80.9831 21.5406 80.4407 21.0886 79.5142 21.0886H77.9549V23.5594ZM77.9549 28.0415H79.5971C80.7345 28.0415 81.3673 27.5443 81.3673 26.6253C81.3673 25.7364 80.7195 25.2392 79.582 25.2392H77.9549V28.0415ZM87.6563 30C86.7825 30 86.2703 29.4727 86.2703 28.5537V20.5764C86.2703 19.6574 86.7825 19.1301 87.6563 19.1301H91.3248C93.4642 19.1301 94.7523 20.1621 94.7523 21.8419C94.7523 23.0622 93.8333 24.034 92.628 24.1997V24.26C94.0969 24.3277 95.257 25.42 95.257 26.8663C95.257 28.7721 93.7881 30 91.4604 30H87.6563ZM89.0348 23.5594H90.4586C91.4604 23.5594 92.0631 23.0848 92.0631 22.3014C92.0631 21.5406 91.5207 21.0886 90.5941 21.0886H89.0348V23.5594ZM89.0348 28.0415H90.677C91.8145 28.0415 92.4472 27.5443 92.4472 26.6253C92.4472 25.7364 91.7994 25.2392 90.6619 25.2392H89.0348V28.0415ZM101.531 30.1657C100.65 30.1657 100.145 29.646 100.145 28.7269V26.2637L96.9359 21.2167C96.7401 20.9078 96.6497 20.5914 96.6497 20.2751C96.6497 19.5142 97.2372 18.9643 98.0433 18.9643C98.6459 18.9643 98.9698 19.1828 99.3389 19.8457L101.531 23.6498H101.584L103.776 19.8457C104.13 19.2129 104.491 18.9643 105.041 18.9643C105.825 18.9643 106.405 19.5142 106.405 20.2525C106.405 20.5839 106.314 20.8928 106.111 21.2091L102.909 26.2637V28.7269C102.909 29.646 102.405 30.1657 101.531 30.1657ZM113.936 30C113.062 30 112.55 29.4727 112.55 28.5537V20.5764C112.55 19.6574 113.062 19.1301 113.936 19.1301H118.915C119.661 19.1301 120.143 19.5368 120.143 20.2449C120.143 20.953 119.646 21.3598 118.915 21.3598H115.314V23.5217H118.749C119.42 23.5217 119.864 23.8984 119.864 24.5387C119.864 25.179 119.435 25.5556 118.749 25.5556H115.314V27.7703H118.915C119.646 27.7703 120.143 28.177 120.143 28.8851C120.143 29.5932 119.661 30 118.915 30H113.936ZM123.75 30.1657C123.02 30.1657 122.455 29.6384 122.455 28.968C122.455 28.6215 122.56 28.3202 122.846 27.936L125.302 24.5537V24.4935L122.944 21.3598C122.62 20.938 122.522 20.6291 122.522 20.26C122.522 19.5067 123.102 18.9643 123.908 18.9643C124.428 18.9643 124.812 19.1979 125.144 19.7101L127.208 22.8061H127.261L129.4 19.6197C129.709 19.1602 129.98 18.9643 130.515 18.9643C131.23 18.9643 131.856 19.4766 131.856 20.1395C131.856 20.501 131.75 20.8024 131.479 21.1489L128.88 24.5236V24.5763L131.404 27.8908C131.682 28.2373 131.788 28.5537 131.788 28.9303C131.788 29.6535 131.245 30.1657 130.485 30.1657C129.98 30.1657 129.648 29.9699 129.287 29.4802L127.095 26.4746H127.035L124.91 29.5028C124.571 29.9849 124.27 30.1657 123.75 30.1657ZM135.779 30.1657C134.906 30.1657 134.393 29.646 134.393 28.7269V20.5764C134.393 19.6574 134.906 19.1301 135.779 19.1301H139.101C141.437 19.1301 143.018 20.6442 143.018 22.9794C143.018 25.2995 141.354 26.8136 138.936 26.8136H137.158V28.7269C137.158 29.646 136.653 30.1657 135.779 30.1657ZM137.158 24.7345H138.356C139.531 24.7345 140.224 24.1244 140.224 22.9869C140.224 21.857 139.531 21.2468 138.371 21.2468H137.158V24.7345ZM146.558 30C145.684 30 145.172 29.4727 145.172 28.5537V20.4031C145.172 19.4841 145.684 18.9643 146.558 18.9643C147.432 18.9643 147.936 19.4841 147.936 20.4031V27.7703H151.341C152.08 27.7703 152.569 28.177 152.569 28.8851C152.569 29.5932 152.087 30 151.341 30H146.558ZM159.242 30.1883C155.943 30.1883 153.871 28.0339 153.871 24.5688C153.871 21.1037 155.951 18.9417 159.242 18.9417C162.534 18.9417 164.606 21.1037 164.606 24.5688C164.606 28.0339 162.534 30.1883 159.242 30.1883ZM159.242 27.9435C160.787 27.9435 161.796 26.6328 161.796 24.5688C161.796 22.4973 160.787 21.1865 159.242 21.1865C157.698 21.1865 156.689 22.4973 156.689 24.5688C156.689 26.6328 157.691 27.9435 159.242 27.9435ZM168.266 30.1733C167.392 30.1733 166.88 29.646 166.88 28.7345V20.5764C166.88 19.6574 167.392 19.1301 168.266 19.1301H171.535C174.247 19.1301 175.708 20.4709 175.708 22.7157C175.708 23.9963 175.121 25.1413 174.013 25.6987L175.347 27.9661C175.588 28.3654 175.641 28.5914 175.641 28.9153C175.641 29.646 175.068 30.1733 174.262 30.1733C173.592 30.1733 173.305 29.9397 172.838 29.0961L171.226 26.1959H169.644V28.7345C169.644 29.646 169.14 30.1733 168.266 30.1733ZM169.644 24.3051H171.264C172.281 24.3051 172.884 23.7101 172.884 22.7684C172.884 21.8419 172.243 21.2167 171.256 21.2167H169.644V24.3051ZM179.406 30C178.532 30 178.02 29.4727 178.02 28.5537V20.5764C178.02 19.6574 178.532 19.1301 179.406 19.1301H184.385C185.131 19.1301 185.613 19.5368 185.613 20.2449C185.613 20.953 185.116 21.3598 184.385 21.3598H180.785V23.5217H184.22C184.89 23.5217 185.335 23.8984 185.335 24.5387C185.335 25.179 184.905 25.5556 184.22 25.5556H180.785V27.7703H184.385C185.116 27.7703 185.613 28.177 185.613 28.8851C185.613 29.5932 185.131 30 184.385 30H179.406Z" fill="#1E1E1E"/>
<path d="M51.4335 30.1657C50.5596 30.1657 50.0474 29.646 50.0474 28.7269V20.4031C50.0474 19.4841 50.5596 18.9643 51.4335 18.9643C52.3073 18.9643 52.812 19.4841 52.812 20.4031V23.3937H57.1434V20.4031C57.1434 19.4841 57.6481 18.9643 58.5219 18.9643C59.3957 18.9643 59.9004 19.4841 59.9004 20.4031V28.7269C59.9004 29.646 59.3957 30.1657 58.5219 30.1657C57.6481 30.1657 57.1434 29.646 57.1434 28.7269V25.6234H52.812V28.7269C52.812 29.646 52.3073 30.1657 51.4335 30.1657ZM67.5529 30.1883C64.2535 30.1883 62.182 28.0339 62.182 24.5688C62.182 21.1037 64.261 18.9417 67.5529 18.9417C70.8448 18.9417 72.9163 21.1037 72.9163 24.5688C72.9163 28.0339 70.8448 30.1883 67.5529 30.1883ZM67.5529 27.9435C69.0971 27.9435 70.1065 26.6328 70.1065 24.5688C70.1065 22.4973 69.0971 21.1865 67.5529 21.1865C66.0087 21.1865 64.9993 22.4973 64.9993 24.5688C64.9993 26.6328 66.0011 27.9435 67.5529 27.9435ZM76.5764 30C75.7026 30 75.1903 29.4727 75.1903 28.5537V20.5764C75.1903 19.6574 75.7026 19.1301 76.5764 19.1301H80.2449C82.3842 19.1301 83.6723 20.1621 83.6723 21.8419C83.6723 23.0622 82.7533 24.034 81.5481 24.1997V24.26C83.017 24.3277 84.177 25.42 84.177 26.8663C84.177 28.7721 82.7081 30 80.3805 30H76.5764ZM77.9549 23.5594H79.3786C80.3805 23.5594 80.9831 23.0848 80.9831 22.3014C80.9831 21.5406 80.4407 21.0886 79.5142 21.0886H77.9549V23.5594ZM77.9549 28.0415H79.5971C80.7345 28.0415 81.3673 27.5443 81.3673 26.6253C81.3673 25.7364 80.7195 25.2392 79.582 25.2392H77.9549V28.0415ZM87.6563 30C86.7825 30 86.2703 29.4727 86.2703 28.5537V20.5764C86.2703 19.6574 86.7825 19.1301 87.6563 19.1301H91.3248C93.4642 19.1301 94.7523 20.1621 94.7523 21.8419C94.7523 23.0622 93.8333 24.034 92.628 24.1997V24.26C94.0969 24.3277 95.257 25.42 95.257 26.8663C95.257 28.7721 93.7881 30 91.4604 30H87.6563ZM89.0348 23.5594H90.4586C91.4604 23.5594 92.0631 23.0848 92.0631 22.3014C92.0631 21.5406 91.5207 21.0886 90.5941 21.0886H89.0348V23.5594ZM89.0348 28.0415H90.677C91.8145 28.0415 92.4472 27.5443 92.4472 26.6253C92.4472 25.7364 91.7994 25.2392 90.6619 25.2392H89.0348V28.0415ZM101.531 30.1657C100.65 30.1657 100.145 29.646 100.145 28.7269V26.2637L96.9359 21.2167C96.7401 20.9078 96.6497 20.5914 96.6497 20.2751C96.6497 19.5142 97.2372 18.9643 98.0433 18.9643C98.6459 18.9643 98.9698 19.1828 99.3389 19.8457L101.531 23.6498H101.584L103.776 19.8457C104.13 19.2129 104.491 18.9643 105.041 18.9643C105.825 18.9643 106.405 19.5142 106.405 20.2525C106.405 20.5839 106.314 20.8928 106.111 21.2091L102.909 26.2637V28.7269C102.909 29.646 102.405 30.1657 101.531 30.1657ZM113.936 30C113.062 30 112.55 29.4727 112.55 28.5537V20.5764C112.55 19.6574 113.062 19.1301 113.936 19.1301H118.915C119.661 19.1301 120.143 19.5368 120.143 20.2449C120.143 20.953 119.646 21.3598 118.915 21.3598H115.314V23.5217H118.749C119.42 23.5217 119.864 23.8984 119.864 24.5387C119.864 25.179 119.435 25.5556 118.749 25.5556H115.314V27.7703H118.915C119.646 27.7703 120.143 28.177 120.143 28.8851C120.143 29.5932 119.661 30 118.915 30H113.936ZM123.75 30.1657C123.02 30.1657 122.455 29.6384 122.455 28.968C122.455 28.6215 122.56 28.3202 122.846 27.936L125.302 24.5537V24.4935L122.944 21.3598C122.62 20.938 122.522 20.6291 122.522 20.26C122.522 19.5067 123.102 18.9643 123.908 18.9643C124.428 18.9643 124.812 19.1979 125.144 19.7101L127.208 22.8061H127.261L129.4 19.6197C129.709 19.1602 129.98 18.9643 130.515 18.9643C131.23 18.9643 131.856 19.4766 131.856 20.1395C131.856 20.501 131.75 20.8024 131.479 21.1489L128.88 24.5236V24.5763L131.404 27.8908C131.682 28.2373 131.788 28.5537 131.788 28.9303C131.788 29.6535 131.245 30.1657 130.485 30.1657C129.98 30.1657 129.648 29.9699 129.287 29.4802L127.095 26.4746H127.035L124.91 29.5028C124.571 29.9849 124.27 30.1657 123.75 30.1657ZM135.779 30.1657C134.906 30.1657 134.393 29.646 134.393 28.7269V20.5764C134.393 19.6574 134.906 19.1301 135.779 19.1301H139.101C141.437 19.1301 143.018 20.6442 143.018 22.9794C143.018 25.2995 141.354 26.8136 138.936 26.8136H137.158V28.7269C137.158 29.646 136.653 30.1657 135.779 30.1657ZM137.158 24.7345H138.356C139.531 24.7345 140.224 24.1244 140.224 22.9869C140.224 21.857 139.531 21.2468 138.371 21.2468H137.158V24.7345ZM146.558 30C145.684 30 145.172 29.4727 145.172 28.5537V20.4031C145.172 19.4841 145.684 18.9643 146.558 18.9643C147.432 18.9643 147.936 19.4841 147.936 20.4031V27.7703H151.341C152.08 27.7703 152.569 28.177 152.569 28.8851C152.569 29.5932 152.087 30 151.341 30H146.558ZM159.242 30.1883C155.943 30.1883 153.871 28.0339 153.871 24.5688C153.871 21.1037 155.951 18.9417 159.242 18.9417C162.534 18.9417 164.606 21.1037 164.606 24.5688C164.606 28.0339 162.534 30.1883 159.242 30.1883ZM159.242 27.9435C160.787 27.9435 161.796 26.6328 161.796 24.5688C161.796 22.4973 160.787 21.1865 159.242 21.1865C157.698 21.1865 156.689 22.4973 156.689 24.5688C156.689 26.6328 157.691 27.9435 159.242 27.9435ZM168.266 30.1733C167.392 30.1733 166.88 29.646 166.88 28.7345V20.5764C166.88 19.6574 167.392 19.1301 168.266 19.1301H171.535C174.247 19.1301 175.708 20.4709 175.708 22.7157C175.708 23.9963 175.121 25.1413 174.013 25.6987L175.347 27.9661C175.588 28.3654 175.641 28.5914 175.641 28.9153C175.641 29.646 175.068 30.1733 174.262 30.1733C173.592 30.1733 173.305 29.9397 172.838 29.0961L171.226 26.1959H169.644V28.7345C169.644 29.646 169.14 30.1733 168.266 30.1733ZM169.644 24.3051H171.264C172.281 24.3051 172.884 23.7101 172.884 22.7684C172.884 21.8419 172.243 21.2167 171.256 21.2167H169.644V24.3051ZM179.406 30C178.532 30 178.02 29.4727 178.02 28.5537V20.5764C178.02 19.6574 178.532 19.1301 179.406 19.1301H184.385C185.131 19.1301 185.613 19.5368 185.613 20.2449C185.613 20.953 185.116 21.3598 184.385 21.3598H180.785V23.5217H184.22C184.89 23.5217 185.335 23.8984 185.335 24.5387C185.335 25.179 184.905 25.5556 184.22 25.5556H180.785V27.7703H184.385C185.116 27.7703 185.613 28.177 185.613 28.8851C185.613 29.5932 185.131 30 184.385 30H179.406Z" fill="#1E1E1E"/>
<path d="M15.3365 24.4743C15.3365 28.538 12.1629 31.7538 8.34323 31.7538C4.52355 31.7538 1.35001 28.538 1.35001 24.4743C1.35001 20.4107 4.52355 17.1949 8.34323 17.1949C12.1629 17.1949 15.3365 20.4107 15.3365 24.4743Z" stroke="#1E1E1E" stroke-width="2.69978"/>
<path d="M15.3365 24.4743C15.3365 28.538 12.1629 31.7538 8.34323 31.7538C4.52355 31.7538 1.35001 28.538 1.35001 24.4743C1.35001 20.4107 4.52355 17.1949 8.34323 17.1949C12.1629 17.1949 15.3365 20.4107 15.3365 24.4743Z" stroke="#1E1E1E" stroke-width="2.69978"/>
<path d="M35.3319 24.4743C35.3319 28.538 32.1584 31.7538 28.3387 31.7538C24.519 31.7538 21.3455 28.538 21.3455 24.4743C21.3455 20.4107 24.519 17.1949 28.3387 17.1949C32.1584 17.1949 35.3319 20.4107 35.3319 24.4743Z" stroke="#1E1E1E" stroke-width="2.69978"/>
<path d="M35.3319 24.4743C35.3319 28.538 32.1584 31.7538 28.3387 31.7538C24.519 31.7538 21.3455 28.538 21.3455 24.4743C21.3455 20.4107 24.519 17.1949 28.3387 17.1949C32.1584 17.1949 35.3319 20.4107 35.3319 24.4743Z" stroke="#1E1E1E" stroke-width="2.69978"/>
<path d="M8.34326 24.4742L11.7859 9.78602C12.0311 8.73977 12.9644 8 14.039 8H18.9618" stroke="#1E1E1E" stroke-width="2.3141" stroke-linecap="round"/>
<path d="M8.34326 24.4742L11.7859 9.78602C12.0311 8.73977 12.9644 8 14.039 8H18.9618" stroke="#1E1E1E" stroke-width="2.3141" stroke-linecap="round"/>
<path d="M26.3417 24.4742L9.10168 24.4742" stroke="#1E1E1E" stroke-width="2.3141" stroke-linecap="round"/>
<path d="M26.3417 24.4742L9.10168 24.4742" stroke="#1E1E1E" stroke-width="2.3141" stroke-linecap="round"/>
<ellipse cx="8.34318" cy="24.4743" rx="3.03386" ry="3.13795" fill="#1E1E1E"/>
<ellipse cx="8.34318" cy="24.4743" rx="3.03386" ry="3.13795" fill="#1E1E1E"/>
<ellipse cx="28.3388" cy="24.4744" rx="3.03386" ry="3.13795" fill="#1E1E1E"/>
<ellipse cx="28.3388" cy="24.4744" rx="3.03386" ry="3.13795" fill="#1E1E1E"/>
</svg>
