<svg width="180" height="50" viewBox="0 0 180 50" fill="none" xmlns="http://www.w3.org/2000/svg">
<path d="M44.8785 30.1657C44.0047 30.1657 43.4925 29.646 43.4925 28.7269V20.4031C43.4925 19.4841 44.0047 18.9643 44.8785 18.9643C45.7523 18.9643 46.257 19.4841 46.257 20.4031V23.3937H50.5884V20.4031C50.5884 19.4841 51.0931 18.9643 51.967 18.9643C52.8408 18.9643 53.3455 19.4841 53.3455 20.4031V28.7269C53.3455 29.646 52.8408 30.1657 51.967 30.1657C51.0931 30.1657 50.5884 29.646 50.5884 28.7269V25.6234H46.257V28.7269C46.257 29.646 45.7523 30.1657 44.8785 30.1657ZM60.998 30.1883C57.6986 30.1883 55.627 28.0339 55.627 24.5688C55.627 21.1037 57.7061 18.9417 60.998 18.9417C64.2898 18.9417 66.3614 21.1037 66.3614 24.5688C66.3614 28.0339 64.2898 30.1883 60.998 30.1883ZM60.998 27.9435C62.5422 27.9435 63.5516 26.6328 63.5516 24.5688C63.5516 22.4973 62.5422 21.1865 60.998 21.1865C59.4537 21.1865 58.4443 22.4973 58.4443 24.5688C58.4443 26.6328 59.4462 27.9435 60.998 27.9435ZM70.0214 30C69.1476 30 68.6354 29.4727 68.6354 28.5537V20.5764C68.6354 19.6574 69.1476 19.1301 70.0214 19.1301H73.69C75.8293 19.1301 77.1174 20.1621 77.1174 21.8419C77.1174 23.0622 76.1984 24.034 74.9931 24.1997V24.26C76.462 24.3277 77.6221 25.42 77.6221 26.8663C77.6221 28.7721 76.1532 30 73.8255 30H70.0214ZM71.4 23.5594H72.8237C73.8255 23.5594 74.4282 23.0848 74.4282 22.3014C74.4282 21.5406 73.8858 21.0886 72.9593 21.0886H71.4V23.5594ZM71.4 28.0415H73.0421C74.1796 28.0415 74.8123 27.5443 74.8123 26.6253C74.8123 25.7364 74.1645 25.2392 73.0271 25.2392H71.4V28.0415ZM81.1014 30C80.2276 30 79.7153 29.4727 79.7153 28.5537V20.5764C79.7153 19.6574 80.2276 19.1301 81.1014 19.1301H84.7699C86.9092 19.1301 88.1974 20.1621 88.1974 21.8419C88.1974 23.0622 87.2784 24.034 86.0731 24.1997V24.26C87.542 24.3277 88.7021 25.42 88.7021 26.8663C88.7021 28.7721 87.2332 30 84.9055 30H81.1014ZM82.4799 23.5594H83.9036C84.9055 23.5594 85.5081 23.0848 85.5081 22.3014C85.5081 21.5406 84.9658 21.0886 84.0392 21.0886H82.4799V23.5594ZM82.4799 28.0415H84.1221C85.2595 28.0415 85.8923 27.5443 85.8923 26.6253C85.8923 25.7364 85.2445 25.2392 84.107 25.2392H82.4799V28.0415ZM94.976 30.1657C94.0947 30.1657 93.59 29.646 93.59 28.7269V26.2637L90.381 21.2167C90.1851 20.9078 90.0947 20.5914 90.0947 20.2751C90.0947 19.5142 90.6823 18.9643 91.4883 18.9643C92.091 18.9643 92.4149 19.1828 92.784 19.8457L94.976 23.6498H95.0288L97.2208 19.8457C97.5749 19.2129 97.9365 18.9643 98.4864 18.9643C99.2698 18.9643 99.8498 19.5142 99.8498 20.2525C99.8498 20.5839 99.7594 20.8928 99.556 21.2091L96.3546 26.2637V28.7269C96.3546 29.646 95.8499 30.1657 94.976 30.1657ZM107.381 30C106.507 30 105.995 29.4727 105.995 28.5537V20.5764C105.995 19.6574 106.507 19.1301 107.381 19.1301H112.36C113.106 19.1301 113.588 19.5368 113.588 20.2449C113.588 20.953 113.091 21.3598 112.36 21.3598H108.759V23.5217H112.194C112.865 23.5217 113.309 23.8984 113.309 24.5387C113.309 25.179 112.88 25.5556 112.194 25.5556H108.759V27.7703H112.36C113.091 27.7703 113.588 28.177 113.588 28.8851C113.588 29.5932 113.106 30 112.36 30H107.381ZM117.195 30.1657C116.465 30.1657 115.9 29.6384 115.9 28.968C115.9 28.6215 116.005 28.3202 116.291 27.936L118.747 24.5537V24.4935L116.389 21.3598C116.065 20.938 115.967 20.6291 115.967 20.26C115.967 19.5067 116.547 18.9643 117.353 18.9643C117.873 18.9643 118.257 19.1979 118.589 19.7101L120.653 22.8061H120.706L122.845 19.6197C123.154 19.1602 123.425 18.9643 123.96 18.9643C124.675 18.9643 125.301 19.4766 125.301 20.1395C125.301 20.501 125.195 20.8024 124.924 21.1489L122.325 24.5236V24.5763L124.849 27.8908C125.127 28.2373 125.233 28.5537 125.233 28.9303C125.233 29.6535 124.691 30.1657 123.93 30.1657C123.425 30.1657 123.094 29.9699 122.732 29.4802L120.54 26.4746H120.48L118.355 29.5028C118.016 29.9849 117.715 30.1657 117.195 30.1657ZM129.224 30.1657C128.351 30.1657 127.838 29.646 127.838 28.7269V20.5764C127.838 19.6574 128.351 19.1301 129.224 19.1301H132.546C134.882 19.1301 136.463 20.6442 136.463 22.9794C136.463 25.2995 134.799 26.8136 132.381 26.8136H130.603V28.7269C130.603 29.646 130.098 30.1657 129.224 30.1657ZM130.603 24.7345H131.801C132.976 24.7345 133.669 24.1244 133.669 22.9869C133.669 21.857 132.976 21.2468 131.816 21.2468H130.603V24.7345ZM140.003 30C139.129 30 138.617 29.4727 138.617 28.5537V20.4031C138.617 19.4841 139.129 18.9643 140.003 18.9643C140.877 18.9643 141.382 19.4841 141.382 20.4031V27.7703H144.786C145.525 27.7703 146.014 28.177 146.014 28.8851C146.014 29.5932 145.532 30 144.786 30H140.003ZM152.687 30.1883C149.388 30.1883 147.317 28.0339 147.317 24.5688C147.317 21.1037 149.396 18.9417 152.687 18.9417C155.979 18.9417 158.051 21.1037 158.051 24.5688C158.051 28.0339 155.979 30.1883 152.687 30.1883ZM152.687 27.9435C154.232 27.9435 155.241 26.6328 155.241 24.5688C155.241 22.4973 154.232 21.1865 152.687 21.1865C151.143 21.1865 150.134 22.4973 150.134 24.5688C150.134 26.6328 151.136 27.9435 152.687 27.9435ZM161.711 30.1733C160.837 30.1733 160.325 29.646 160.325 28.7345V20.5764C160.325 19.6574 160.837 19.1301 161.711 19.1301H164.98C167.692 19.1301 169.153 20.4709 169.153 22.7157C169.153 23.9963 168.566 25.1413 167.459 25.6987L168.792 27.9661C169.033 28.3654 169.086 28.5914 169.086 28.9153C169.086 29.646 168.513 30.1733 167.707 30.1733C167.037 30.1733 166.75 29.9397 166.283 29.0961L164.671 26.1959H163.089V28.7345C163.089 29.646 162.585 30.1733 161.711 30.1733ZM163.089 24.3051H164.709C165.726 24.3051 166.329 23.7101 166.329 22.7684C166.329 21.8419 165.688 21.2167 164.702 21.2167H163.089V24.3051ZM172.851 30C171.977 30 171.465 29.4727 171.465 28.5537V20.5764C171.465 19.6574 171.977 19.1301 172.851 19.1301H177.83C178.576 19.1301 179.058 19.5368 179.058 20.2449C179.058 20.953 178.561 21.3598 177.83 21.3598H174.23V23.5217H177.665C178.335 23.5217 178.78 23.8984 178.78 24.5387C178.78 25.179 178.35 25.5556 177.665 25.5556H174.23V27.7703H177.83C178.561 27.7703 179.058 28.177 179.058 28.8851C179.058 29.5932 178.576 30 177.83 30H172.851Z" fill="#00CAA7"/>
<path d="M44.8785 30.1657C44.0047 30.1657 43.4925 29.646 43.4925 28.7269V20.4031C43.4925 19.4841 44.0047 18.9643 44.8785 18.9643C45.7523 18.9643 46.257 19.4841 46.257 20.4031V23.3937H50.5884V20.4031C50.5884 19.4841 51.0931 18.9643 51.967 18.9643C52.8408 18.9643 53.3455 19.4841 53.3455 20.4031V28.7269C53.3455 29.646 52.8408 30.1657 51.967 30.1657C51.0931 30.1657 50.5884 29.646 50.5884 28.7269V25.6234H46.257V28.7269C46.257 29.646 45.7523 30.1657 44.8785 30.1657ZM60.998 30.1883C57.6986 30.1883 55.627 28.0339 55.627 24.5688C55.627 21.1037 57.7061 18.9417 60.998 18.9417C64.2898 18.9417 66.3614 21.1037 66.3614 24.5688C66.3614 28.0339 64.2898 30.1883 60.998 30.1883ZM60.998 27.9435C62.5422 27.9435 63.5516 26.6328 63.5516 24.5688C63.5516 22.4973 62.5422 21.1865 60.998 21.1865C59.4537 21.1865 58.4443 22.4973 58.4443 24.5688C58.4443 26.6328 59.4462 27.9435 60.998 27.9435ZM70.0214 30C69.1476 30 68.6354 29.4727 68.6354 28.5537V20.5764C68.6354 19.6574 69.1476 19.1301 70.0214 19.1301H73.69C75.8293 19.1301 77.1174 20.1621 77.1174 21.8419C77.1174 23.0622 76.1984 24.034 74.9931 24.1997V24.26C76.462 24.3277 77.6221 25.42 77.6221 26.8663C77.6221 28.7721 76.1532 30 73.8255 30H70.0214ZM71.4 23.5594H72.8237C73.8255 23.5594 74.4282 23.0848 74.4282 22.3014C74.4282 21.5406 73.8858 21.0886 72.9593 21.0886H71.4V23.5594ZM71.4 28.0415H73.0421C74.1796 28.0415 74.8123 27.5443 74.8123 26.6253C74.8123 25.7364 74.1645 25.2392 73.0271 25.2392H71.4V28.0415ZM81.1014 30C80.2276 30 79.7153 29.4727 79.7153 28.5537V20.5764C79.7153 19.6574 80.2276 19.1301 81.1014 19.1301H84.7699C86.9092 19.1301 88.1974 20.1621 88.1974 21.8419C88.1974 23.0622 87.2784 24.034 86.0731 24.1997V24.26C87.542 24.3277 88.7021 25.42 88.7021 26.8663C88.7021 28.7721 87.2332 30 84.9055 30H81.1014ZM82.4799 23.5594H83.9036C84.9055 23.5594 85.5081 23.0848 85.5081 22.3014C85.5081 21.5406 84.9658 21.0886 84.0392 21.0886H82.4799V23.5594ZM82.4799 28.0415H84.1221C85.2595 28.0415 85.8923 27.5443 85.8923 26.6253C85.8923 25.7364 85.2445 25.2392 84.107 25.2392H82.4799V28.0415ZM94.976 30.1657C94.0947 30.1657 93.59 29.646 93.59 28.7269V26.2637L90.381 21.2167C90.1851 20.9078 90.0947 20.5914 90.0947 20.2751C90.0947 19.5142 90.6823 18.9643 91.4883 18.9643C92.091 18.9643 92.4149 19.1828 92.784 19.8457L94.976 23.6498H95.0288L97.2208 19.8457C97.5749 19.2129 97.9365 18.9643 98.4864 18.9643C99.2698 18.9643 99.8498 19.5142 99.8498 20.2525C99.8498 20.5839 99.7594 20.8928 99.556 21.2091L96.3546 26.2637V28.7269C96.3546 29.646 95.8499 30.1657 94.976 30.1657ZM107.381 30C106.507 30 105.995 29.4727 105.995 28.5537V20.5764C105.995 19.6574 106.507 19.1301 107.381 19.1301H112.36C113.106 19.1301 113.588 19.5368 113.588 20.2449C113.588 20.953 113.091 21.3598 112.36 21.3598H108.759V23.5217H112.194C112.865 23.5217 113.309 23.8984 113.309 24.5387C113.309 25.179 112.88 25.5556 112.194 25.5556H108.759V27.7703H112.36C113.091 27.7703 113.588 28.177 113.588 28.8851C113.588 29.5932 113.106 30 112.36 30H107.381ZM117.195 30.1657C116.465 30.1657 115.9 29.6384 115.9 28.968C115.9 28.6215 116.005 28.3202 116.291 27.936L118.747 24.5537V24.4935L116.389 21.3598C116.065 20.938 115.967 20.6291 115.967 20.26C115.967 19.5067 116.547 18.9643 117.353 18.9643C117.873 18.9643 118.257 19.1979 118.589 19.7101L120.653 22.8061H120.706L122.845 19.6197C123.154 19.1602 123.425 18.9643 123.96 18.9643C124.675 18.9643 125.301 19.4766 125.301 20.1395C125.301 20.501 125.195 20.8024 124.924 21.1489L122.325 24.5236V24.5763L124.849 27.8908C125.127 28.2373 125.233 28.5537 125.233 28.9303C125.233 29.6535 124.691 30.1657 123.93 30.1657C123.425 30.1657 123.094 29.9699 122.732 29.4802L120.54 26.4746H120.48L118.355 29.5028C118.016 29.9849 117.715 30.1657 117.195 30.1657ZM129.224 30.1657C128.351 30.1657 127.838 29.646 127.838 28.7269V20.5764C127.838 19.6574 128.351 19.1301 129.224 19.1301H132.546C134.882 19.1301 136.463 20.6442 136.463 22.9794C136.463 25.2995 134.799 26.8136 132.381 26.8136H130.603V28.7269C130.603 29.646 130.098 30.1657 129.224 30.1657ZM130.603 24.7345H131.801C132.976 24.7345 133.669 24.1244 133.669 22.9869C133.669 21.857 132.976 21.2468 131.816 21.2468H130.603V24.7345ZM140.003 30C139.129 30 138.617 29.4727 138.617 28.5537V20.4031C138.617 19.4841 139.129 18.9643 140.003 18.9643C140.877 18.9643 141.382 19.4841 141.382 20.4031V27.7703H144.786C145.525 27.7703 146.014 28.177 146.014 28.8851C146.014 29.5932 145.532 30 144.786 30H140.003ZM152.687 30.1883C149.388 30.1883 147.317 28.0339 147.317 24.5688C147.317 21.1037 149.396 18.9417 152.687 18.9417C155.979 18.9417 158.051 21.1037 158.051 24.5688C158.051 28.0339 155.979 30.1883 152.687 30.1883ZM152.687 27.9435C154.232 27.9435 155.241 26.6328 155.241 24.5688C155.241 22.4973 154.232 21.1865 152.687 21.1865C151.143 21.1865 150.134 22.4973 150.134 24.5688C150.134 26.6328 151.136 27.9435 152.687 27.9435ZM161.711 30.1733C160.837 30.1733 160.325 29.646 160.325 28.7345V20.5764C160.325 19.6574 160.837 19.1301 161.711 19.1301H164.98C167.692 19.1301 169.153 20.4709 169.153 22.7157C169.153 23.9963 168.566 25.1413 167.459 25.6987L168.792 27.9661C169.033 28.3654 169.086 28.5914 169.086 28.9153C169.086 29.646 168.513 30.1733 167.707 30.1733C167.037 30.1733 166.75 29.9397 166.283 29.0961L164.671 26.1959H163.089V28.7345C163.089 29.646 162.585 30.1733 161.711 30.1733ZM163.089 24.3051H164.709C165.726 24.3051 166.329 23.7101 166.329 22.7684C166.329 21.8419 165.688 21.2167 164.702 21.2167H163.089V24.3051ZM172.851 30C171.977 30 171.465 29.4727 171.465 28.5537V20.5764C171.465 19.6574 171.977 19.1301 172.851 19.1301H177.83C178.576 19.1301 179.058 19.5368 179.058 20.2449C179.058 20.953 178.561 21.3598 177.83 21.3598H174.23V23.5217H177.665C178.335 23.5217 178.78 23.8984 178.78 24.5387C178.78 25.179 178.35 25.5556 177.665 25.5556H174.23V27.7703H177.83C178.561 27.7703 179.058 28.177 179.058 28.8851C179.058 29.5932 178.576 30 177.83 30H172.851Z" fill="white"/>
<path d="M15.3363 24.4743C15.3363 28.538 12.1628 31.7538 8.34311 31.7538C4.52342 31.7538 1.34989 28.538 1.34989 24.4743C1.34989 20.4107 4.52342 17.1949 8.34311 17.1949C12.1628 17.1949 15.3363 20.4107 15.3363 24.4743Z" stroke="#00CAA7" stroke-width="2.69978"/>
<path d="M15.3363 24.4743C15.3363 28.538 12.1628 31.7538 8.34311 31.7538C4.52342 31.7538 1.34989 28.538 1.34989 24.4743C1.34989 20.4107 4.52342 17.1949 8.34311 17.1949C12.1628 17.1949 15.3363 20.4107 15.3363 24.4743Z" stroke="white" stroke-width="2.69978"/>
<path d="M35.3319 24.4743C35.3319 28.538 32.1584 31.7538 28.3387 31.7538C24.519 31.7538 21.3455 28.538 21.3455 24.4743C21.3455 20.4107 24.519 17.1949 28.3387 17.1949C32.1584 17.1949 35.3319 20.4107 35.3319 24.4743Z" stroke="#00CAA7" stroke-width="2.69978"/>
<path d="M35.3319 24.4743C35.3319 28.538 32.1584 31.7538 28.3387 31.7538C24.519 31.7538 21.3455 28.538 21.3455 24.4743C21.3455 20.4107 24.519 17.1949 28.3387 17.1949C32.1584 17.1949 35.3319 20.4107 35.3319 24.4743Z" stroke="white" stroke-width="2.69978"/>
<path d="M8.34326 24.4742L11.7859 9.78602C12.0311 8.73977 12.9644 8 14.039 8H18.9618" stroke="#00CAA7" stroke-width="2.3141" stroke-linecap="round"/>
<path d="M8.34326 24.4742L11.7859 9.78602C12.0311 8.73977 12.9644 8 14.039 8H18.9618" stroke="white" stroke-width="2.3141" stroke-linecap="round"/>
<path d="M26.3416 24.4744L9.10156 24.4744" stroke="#00CAA7" stroke-width="2.3141" stroke-linecap="round"/>
<path d="M26.3416 24.4744L9.10156 24.4744" stroke="white" stroke-width="2.3141" stroke-linecap="round"/>
<ellipse cx="8.34318" cy="24.4744" rx="3.03386" ry="3.13795" fill="#00CAA7"/>
<ellipse cx="8.34318" cy="24.4744" rx="3.03386" ry="3.13795" fill="white"/>
<ellipse cx="28.3388" cy="24.4744" rx="3.03386" ry="3.13795" fill="#00CAA7"/>
<ellipse cx="28.3388" cy="24.4744" rx="3.03386" ry="3.13795" fill="white"/>
</svg>
