<svg width="180" height="28" viewBox="0 0 180 28" fill="none" xmlns="http://www.w3.org/2000/svg">
<path d="M44.8785 24.1657C44.0047 24.1657 43.4925 23.646 43.4925 22.7269V14.4031C43.4925 13.4841 44.0047 12.9643 44.8785 12.9643C45.7523 12.9643 46.257 13.4841 46.257 14.4031V17.3937H50.5884V14.4031C50.5884 13.4841 51.0931 12.9643 51.967 12.9643C52.8408 12.9643 53.3455 13.4841 53.3455 14.4031V22.7269C53.3455 23.646 52.8408 24.1657 51.967 24.1657C51.0931 24.1657 50.5884 23.646 50.5884 22.7269V19.6234H46.257V22.7269C46.257 23.646 45.7523 24.1657 44.8785 24.1657ZM60.998 24.1883C57.6986 24.1883 55.627 22.0339 55.627 18.5688C55.627 15.1037 57.7061 12.9417 60.998 12.9417C64.2898 12.9417 66.3614 15.1037 66.3614 18.5688C66.3614 22.0339 64.2898 24.1883 60.998 24.1883ZM60.998 21.9435C62.5422 21.9435 63.5516 20.6328 63.5516 18.5688C63.5516 16.4973 62.5422 15.1865 60.998 15.1865C59.4537 15.1865 58.4443 16.4973 58.4443 18.5688C58.4443 20.6328 59.4462 21.9435 60.998 21.9435ZM70.0214 24C69.1476 24 68.6354 23.4727 68.6354 22.5537V14.5764C68.6354 13.6574 69.1476 13.1301 70.0214 13.1301H73.69C75.8293 13.1301 77.1174 14.1621 77.1174 15.8419C77.1174 17.0622 76.1984 18.034 74.9931 18.1997V18.26C76.462 18.3277 77.6221 19.42 77.6221 20.8663C77.6221 22.7721 76.1532 24 73.8255 24H70.0214ZM71.4 17.5594H72.8237C73.8255 17.5594 74.4282 17.0848 74.4282 16.3014C74.4282 15.5406 73.8858 15.0886 72.9593 15.0886H71.4V17.5594ZM71.4 22.0415H73.0421C74.1796 22.0415 74.8123 21.5443 74.8123 20.6253C74.8123 19.7364 74.1645 19.2392 73.0271 19.2392H71.4V22.0415ZM81.1014 24C80.2276 24 79.7153 23.4727 79.7153 22.5537V14.5764C79.7153 13.6574 80.2276 13.1301 81.1014 13.1301H84.7699C86.9092 13.1301 88.1974 14.1621 88.1974 15.8419C88.1974 17.0622 87.2784 18.034 86.0731 18.1997V18.26C87.542 18.3277 88.7021 19.42 88.7021 20.8663C88.7021 22.7721 87.2332 24 84.9055 24H81.1014ZM82.4799 17.5594H83.9036C84.9055 17.5594 85.5081 17.0848 85.5081 16.3014C85.5081 15.5406 84.9658 15.0886 84.0392 15.0886H82.4799V17.5594ZM82.4799 22.0415H84.1221C85.2595 22.0415 85.8923 21.5443 85.8923 20.6253C85.8923 19.7364 85.2445 19.2392 84.107 19.2392H82.4799V22.0415ZM94.976 24.1657C94.0947 24.1657 93.59 23.646 93.59 22.7269V20.2637L90.381 15.2167C90.1851 14.9078 90.0947 14.5914 90.0947 14.2751C90.0947 13.5142 90.6823 12.9643 91.4883 12.9643C92.091 12.9643 92.4149 13.1828 92.784 13.8457L94.976 17.6498H95.0288L97.2208 13.8457C97.5749 13.2129 97.9365 12.9643 98.4864 12.9643C99.2698 12.9643 99.8498 13.5142 99.8498 14.2525C99.8498 14.5839 99.7594 14.8928 99.556 15.2091L96.3546 20.2637V22.7269C96.3546 23.646 95.8499 24.1657 94.976 24.1657ZM107.381 24C106.507 24 105.995 23.4727 105.995 22.5537V14.5764C105.995 13.6574 106.507 13.1301 107.381 13.1301H112.36C113.106 13.1301 113.588 13.5368 113.588 14.2449C113.588 14.953 113.091 15.3598 112.36 15.3598H108.759V17.5217H112.194C112.865 17.5217 113.309 17.8984 113.309 18.5387C113.309 19.179 112.88 19.5556 112.194 19.5556H108.759V21.7703H112.36C113.091 21.7703 113.588 22.177 113.588 22.8851C113.588 23.5932 113.106 24 112.36 24H107.381ZM117.195 24.1657C116.465 24.1657 115.9 23.6384 115.9 22.968C115.9 22.6215 116.005 22.3202 116.291 21.936L118.747 18.5537V18.4935L116.389 15.3598C116.065 14.938 115.967 14.6291 115.967 14.26C115.967 13.5067 116.547 12.9643 117.353 12.9643C117.873 12.9643 118.257 13.1979 118.589 13.7101L120.653 16.8061H120.706L122.845 13.6197C123.154 13.1602 123.425 12.9643 123.96 12.9643C124.675 12.9643 125.301 13.4766 125.301 14.1395C125.301 14.501 125.195 14.8024 124.924 15.1489L122.325 18.5236V18.5763L124.849 21.8908C125.127 22.2373 125.233 22.5537 125.233 22.9303C125.233 23.6535 124.691 24.1657 123.93 24.1657C123.425 24.1657 123.094 23.9699 122.732 23.4802L120.54 20.4746H120.48L118.355 23.5028C118.016 23.9849 117.715 24.1657 117.195 24.1657ZM129.224 24.1657C128.351 24.1657 127.838 23.646 127.838 22.7269V14.5764C127.838 13.6574 128.351 13.1301 129.224 13.1301H132.546C134.882 13.1301 136.463 14.6442 136.463 16.9794C136.463 19.2995 134.799 20.8136 132.381 20.8136H130.603V22.7269C130.603 23.646 130.098 24.1657 129.224 24.1657ZM130.603 18.7345H131.801C132.976 18.7345 133.669 18.1244 133.669 16.9869C133.669 15.857 132.976 15.2468 131.816 15.2468H130.603V18.7345ZM140.003 24C139.129 24 138.617 23.4727 138.617 22.5537V14.4031C138.617 13.4841 139.129 12.9643 140.003 12.9643C140.877 12.9643 141.382 13.4841 141.382 14.4031V21.7703H144.786C145.525 21.7703 146.014 22.177 146.014 22.8851C146.014 23.5932 145.532 24 144.786 24H140.003ZM152.687 24.1883C149.388 24.1883 147.317 22.0339 147.317 18.5688C147.317 15.1037 149.396 12.9417 152.687 12.9417C155.979 12.9417 158.051 15.1037 158.051 18.5688C158.051 22.0339 155.979 24.1883 152.687 24.1883ZM152.687 21.9435C154.232 21.9435 155.241 20.6328 155.241 18.5688C155.241 16.4973 154.232 15.1865 152.687 15.1865C151.143 15.1865 150.134 16.4973 150.134 18.5688C150.134 20.6328 151.136 21.9435 152.687 21.9435ZM161.711 24.1733C160.837 24.1733 160.325 23.646 160.325 22.7345V14.5764C160.325 13.6574 160.837 13.1301 161.711 13.1301H164.98C167.692 13.1301 169.153 14.4709 169.153 16.7157C169.153 17.9963 168.566 19.1413 167.459 19.6987L168.792 21.9661C169.033 22.3654 169.086 22.5914 169.086 22.9153C169.086 23.646 168.513 24.1733 167.707 24.1733C167.037 24.1733 166.75 23.9397 166.283 23.0961L164.671 20.1959H163.089V22.7345C163.089 23.646 162.585 24.1733 161.711 24.1733ZM163.089 18.3051H164.709C165.726 18.3051 166.329 17.7101 166.329 16.7684C166.329 15.8419 165.688 15.2167 164.702 15.2167H163.089V18.3051ZM172.851 24C171.977 24 171.465 23.4727 171.465 22.5537V14.5764C171.465 13.6574 171.977 13.1301 172.851 13.1301H177.83C178.576 13.1301 179.058 13.5368 179.058 14.2449C179.058 14.953 178.561 15.3598 177.83 15.3598H174.23V17.5217H177.665C178.335 17.5217 178.78 17.8984 178.78 18.5387C178.78 19.179 178.35 19.5556 177.665 19.5556H174.23V21.7703H177.83C178.561 21.7703 179.058 22.177 179.058 22.8851C179.058 23.5932 178.576 24 177.83 24H172.851Z" fill="#1E1E1E"/>
<path d="M44.8785 24.1657C44.0047 24.1657 43.4925 23.646 43.4925 22.7269V14.4031C43.4925 13.4841 44.0047 12.9643 44.8785 12.9643C45.7523 12.9643 46.257 13.4841 46.257 14.4031V17.3937H50.5884V14.4031C50.5884 13.4841 51.0931 12.9643 51.967 12.9643C52.8408 12.9643 53.3455 13.4841 53.3455 14.4031V22.7269C53.3455 23.646 52.8408 24.1657 51.967 24.1657C51.0931 24.1657 50.5884 23.646 50.5884 22.7269V19.6234H46.257V22.7269C46.257 23.646 45.7523 24.1657 44.8785 24.1657ZM60.998 24.1883C57.6986 24.1883 55.627 22.0339 55.627 18.5688C55.627 15.1037 57.7061 12.9417 60.998 12.9417C64.2898 12.9417 66.3614 15.1037 66.3614 18.5688C66.3614 22.0339 64.2898 24.1883 60.998 24.1883ZM60.998 21.9435C62.5422 21.9435 63.5516 20.6328 63.5516 18.5688C63.5516 16.4973 62.5422 15.1865 60.998 15.1865C59.4537 15.1865 58.4443 16.4973 58.4443 18.5688C58.4443 20.6328 59.4462 21.9435 60.998 21.9435ZM70.0214 24C69.1476 24 68.6354 23.4727 68.6354 22.5537V14.5764C68.6354 13.6574 69.1476 13.1301 70.0214 13.1301H73.69C75.8293 13.1301 77.1174 14.1621 77.1174 15.8419C77.1174 17.0622 76.1984 18.034 74.9931 18.1997V18.26C76.462 18.3277 77.6221 19.42 77.6221 20.8663C77.6221 22.7721 76.1532 24 73.8255 24H70.0214ZM71.4 17.5594H72.8237C73.8255 17.5594 74.4282 17.0848 74.4282 16.3014C74.4282 15.5406 73.8858 15.0886 72.9593 15.0886H71.4V17.5594ZM71.4 22.0415H73.0421C74.1796 22.0415 74.8123 21.5443 74.8123 20.6253C74.8123 19.7364 74.1645 19.2392 73.0271 19.2392H71.4V22.0415ZM81.1014 24C80.2276 24 79.7153 23.4727 79.7153 22.5537V14.5764C79.7153 13.6574 80.2276 13.1301 81.1014 13.1301H84.7699C86.9092 13.1301 88.1974 14.1621 88.1974 15.8419C88.1974 17.0622 87.2784 18.034 86.0731 18.1997V18.26C87.542 18.3277 88.7021 19.42 88.7021 20.8663C88.7021 22.7721 87.2332 24 84.9055 24H81.1014ZM82.4799 17.5594H83.9036C84.9055 17.5594 85.5081 17.0848 85.5081 16.3014C85.5081 15.5406 84.9658 15.0886 84.0392 15.0886H82.4799V17.5594ZM82.4799 22.0415H84.1221C85.2595 22.0415 85.8923 21.5443 85.8923 20.6253C85.8923 19.7364 85.2445 19.2392 84.107 19.2392H82.4799V22.0415ZM94.976 24.1657C94.0947 24.1657 93.59 23.646 93.59 22.7269V20.2637L90.381 15.2167C90.1851 14.9078 90.0947 14.5914 90.0947 14.2751C90.0947 13.5142 90.6823 12.9643 91.4883 12.9643C92.091 12.9643 92.4149 13.1828 92.784 13.8457L94.976 17.6498H95.0288L97.2208 13.8457C97.5749 13.2129 97.9365 12.9643 98.4864 12.9643C99.2698 12.9643 99.8498 13.5142 99.8498 14.2525C99.8498 14.5839 99.7594 14.8928 99.556 15.2091L96.3546 20.2637V22.7269C96.3546 23.646 95.8499 24.1657 94.976 24.1657ZM107.381 24C106.507 24 105.995 23.4727 105.995 22.5537V14.5764C105.995 13.6574 106.507 13.1301 107.381 13.1301H112.36C113.106 13.1301 113.588 13.5368 113.588 14.2449C113.588 14.953 113.091 15.3598 112.36 15.3598H108.759V17.5217H112.194C112.865 17.5217 113.309 17.8984 113.309 18.5387C113.309 19.179 112.88 19.5556 112.194 19.5556H108.759V21.7703H112.36C113.091 21.7703 113.588 22.177 113.588 22.8851C113.588 23.5932 113.106 24 112.36 24H107.381ZM117.195 24.1657C116.465 24.1657 115.9 23.6384 115.9 22.968C115.9 22.6215 116.005 22.3202 116.291 21.936L118.747 18.5537V18.4935L116.389 15.3598C116.065 14.938 115.967 14.6291 115.967 14.26C115.967 13.5067 116.547 12.9643 117.353 12.9643C117.873 12.9643 118.257 13.1979 118.589 13.7101L120.653 16.8061H120.706L122.845 13.6197C123.154 13.1602 123.425 12.9643 123.96 12.9643C124.675 12.9643 125.301 13.4766 125.301 14.1395C125.301 14.501 125.195 14.8024 124.924 15.1489L122.325 18.5236V18.5763L124.849 21.8908C125.127 22.2373 125.233 22.5537 125.233 22.9303C125.233 23.6535 124.691 24.1657 123.93 24.1657C123.425 24.1657 123.094 23.9699 122.732 23.4802L120.54 20.4746H120.48L118.355 23.5028C118.016 23.9849 117.715 24.1657 117.195 24.1657ZM129.224 24.1657C128.351 24.1657 127.838 23.646 127.838 22.7269V14.5764C127.838 13.6574 128.351 13.1301 129.224 13.1301H132.546C134.882 13.1301 136.463 14.6442 136.463 16.9794C136.463 19.2995 134.799 20.8136 132.381 20.8136H130.603V22.7269C130.603 23.646 130.098 24.1657 129.224 24.1657ZM130.603 18.7345H131.801C132.976 18.7345 133.669 18.1244 133.669 16.9869C133.669 15.857 132.976 15.2468 131.816 15.2468H130.603V18.7345ZM140.003 24C139.129 24 138.617 23.4727 138.617 22.5537V14.4031C138.617 13.4841 139.129 12.9643 140.003 12.9643C140.877 12.9643 141.382 13.4841 141.382 14.4031V21.7703H144.786C145.525 21.7703 146.014 22.177 146.014 22.8851C146.014 23.5932 145.532 24 144.786 24H140.003ZM152.687 24.1883C149.388 24.1883 147.317 22.0339 147.317 18.5688C147.317 15.1037 149.396 12.9417 152.687 12.9417C155.979 12.9417 158.051 15.1037 158.051 18.5688C158.051 22.0339 155.979 24.1883 152.687 24.1883ZM152.687 21.9435C154.232 21.9435 155.241 20.6328 155.241 18.5688C155.241 16.4973 154.232 15.1865 152.687 15.1865C151.143 15.1865 150.134 16.4973 150.134 18.5688C150.134 20.6328 151.136 21.9435 152.687 21.9435ZM161.711 24.1733C160.837 24.1733 160.325 23.646 160.325 22.7345V14.5764C160.325 13.6574 160.837 13.1301 161.711 13.1301H164.98C167.692 13.1301 169.153 14.4709 169.153 16.7157C169.153 17.9963 168.566 19.1413 167.459 19.6987L168.792 21.9661C169.033 22.3654 169.086 22.5914 169.086 22.9153C169.086 23.646 168.513 24.1733 167.707 24.1733C167.037 24.1733 166.75 23.9397 166.283 23.0961L164.671 20.1959H163.089V22.7345C163.089 23.646 162.585 24.1733 161.711 24.1733ZM163.089 18.3051H164.709C165.726 18.3051 166.329 17.7101 166.329 16.7684C166.329 15.8419 165.688 15.2167 164.702 15.2167H163.089V18.3051ZM172.851 24C171.977 24 171.465 23.4727 171.465 22.5537V14.5764C171.465 13.6574 171.977 13.1301 172.851 13.1301H177.83C178.576 13.1301 179.058 13.5368 179.058 14.2449C179.058 14.953 178.561 15.3598 177.83 15.3598H174.23V17.5217H177.665C178.335 17.5217 178.78 17.8984 178.78 18.5387C178.78 19.179 178.35 19.5556 177.665 19.5556H174.23V21.7703H177.83C178.561 21.7703 179.058 22.177 179.058 22.8851C179.058 23.5932 178.576 24 177.83 24H172.851Z" fill="#1E1E1E"/>
<path d="M15.3363 18.4743C15.3363 22.538 12.1628 25.7538 8.34311 25.7538C4.52342 25.7538 1.34989 22.538 1.34989 18.4743C1.34989 14.4107 4.52342 11.1949 8.34311 11.1949C12.1628 11.1949 15.3363 14.4107 15.3363 18.4743Z" stroke="#1E1E1E" stroke-width="2.69978"/>
<path d="M15.3363 18.4743C15.3363 22.538 12.1628 25.7538 8.34311 25.7538C4.52342 25.7538 1.34989 22.538 1.34989 18.4743C1.34989 14.4107 4.52342 11.1949 8.34311 11.1949C12.1628 11.1949 15.3363 14.4107 15.3363 18.4743Z" stroke="#1E1E1E" stroke-width="2.69978"/>
<path d="M35.3319 18.4743C35.3319 22.538 32.1584 25.7538 28.3387 25.7538C24.519 25.7538 21.3455 22.538 21.3455 18.4743C21.3455 14.4107 24.519 11.1949 28.3387 11.1949C32.1584 11.1949 35.3319 14.4107 35.3319 18.4743Z" stroke="#1E1E1E" stroke-width="2.69978"/>
<path d="M35.3319 18.4743C35.3319 22.538 32.1584 25.7538 28.3387 25.7538C24.519 25.7538 21.3455 22.538 21.3455 18.4743C21.3455 14.4107 24.519 11.1949 28.3387 11.1949C32.1584 11.1949 35.3319 14.4107 35.3319 18.4743Z" stroke="#1E1E1E" stroke-width="2.69978"/>
<path d="M8.34326 18.4742L11.7859 3.78602C12.0311 2.73977 12.9644 2 14.039 2H18.9618" stroke="#1E1E1E" stroke-width="2.3141" stroke-linecap="round"/>
<path d="M8.34326 18.4742L11.7859 3.78602C12.0311 2.73977 12.9644 2 14.039 2H18.9618" stroke="#1E1E1E" stroke-width="2.3141" stroke-linecap="round"/>
<path d="M26.3416 18.4744L9.10156 18.4744" stroke="#1E1E1E" stroke-width="2.3141" stroke-linecap="round"/>
<path d="M26.3416 18.4744L9.10156 18.4744" stroke="#1E1E1E" stroke-width="2.3141" stroke-linecap="round"/>
<ellipse cx="8.34318" cy="18.4744" rx="3.03386" ry="3.13795" fill="#1E1E1E"/>
<ellipse cx="8.34318" cy="18.4744" rx="3.03386" ry="3.13795" fill="#1E1E1E"/>
<ellipse cx="28.3388" cy="18.4744" rx="3.03386" ry="3.13795" fill="#1E1E1E"/>
<ellipse cx="28.3388" cy="18.4744" rx="3.03386" ry="3.13795" fill="#1E1E1E"/>
</svg>
